# xmcd
#
# Track frame offsets:
#  150
#  14272
#  29022
#  40152
#  51110
#  63535
#  78862
#  92690
#  105767
#  119857
#  132102
#  145080
#  158012
#  168267
#  182760
#  194750
#  207210
#
# Disc length: 2934 seconds
#
# Revision: 0
# Processed by: cddbd v1.5.2PL0 Copyright (c) Steve Scherf et al.
# Submitted via: AltoMP3_Maker 3.0
#
DISCID=e50b7411
DTITLE=Various Artist - Blues revival CD2
DYEAR=1900
DGENRE=
TTITLE0=Tough Times
TTITLE1=Anna Lee
TTITLE2=So glad I found You
TTITLE3=Having Fun
TTITLE4=Goin'  away baby
TTITLE5=Dark Road
TTITLE6=Dust my broom
TTITLE7=Eisenhower Blues
TTITLE8=By Myself
TTITLE9=Murmur low
TTITLE10=Korea Blues
TTITLE11=You can't live long
TTITLE12=I Can't stop
TTITLE13=THird Degree
TTITLE14=Ten Years ago
TTITLE15=Be careful
TTITLE16=Jackson town gal
EXTD=
EXTT0=
EXTT1=
EXTT2=
EXTT3=
EXTT4=
EXTT5=
EXTT6=
EXTT7=
EXTT8=
EXTT9=
EXTT10=
EXTT11=
EXTT12=
EXTT13=
EXTT14=
EXTT15=
EXTT16=
PLAYORDER=
